<?xml version="1.0" encoding="UTF-8"?>
<svg id="Objects" xmlns="http://www.w3.org/2000/svg" version="1.1" viewBox="0 0 2200 1466">
  <defs>
    <style>
      .cls-1 {
        fill: #fff;
        stroke-width: 0px;
      }
    </style>
  </defs>
  <path class="cls-1" d="M544.37,1188.1H112.44c.8-103.52,17.53-205.34,49.77-302.76,31.15-94.13,76.29-182.82,134.21-263.71l349.47,253.91c-64.99,91.91-99.99,199.65-101.53,312.56Z"/>
  <path class="cls-1" d="M772.66,746.78c-44.83,32.74-84.38,71.81-117.62,116.2l-265.71-193.05-83.76-60.86c59.85-80.9,131.37-151.98,212.69-211.35,82.34-60.12,172.84-106.84,269.11-138.93l82.29,253.26,51.22,157.64c-52.98,18.03-102.8,43.95-148.21,77.1Z"/>
  <path class="cls-1" d="M935.64,664.89l-113.2-348.41-20.3-62.49c96-30.34,196.18-45.72,297.87-45.72s201.85,15.38,297.87,45.71l-133.51,410.9c-53.05-16.4-108.29-24.71-164.35-24.71s-111.32,8.31-164.36,24.71Z"/>
  <path class="cls-1" d="M1427.34,746.77c-45.41-33.16-95.23-59.07-148.21-77.09l116.99-360.06,16.52-50.84c96.28,32.1,186.77,78.82,269.11,138.94,81.32,59.37,152.84,130.45,212.69,211.35l-239.13,173.75-110.34,80.16c-33.25-44.39-72.79-83.46-117.63-116.2Z"/>
  <path class="cls-1" d="M1655.63,1188.1c-1.54-112.91-36.53-220.66-101.53-312.56l349.47-253.91c57.92,80.9,103.06,169.58,134.21,263.71,32.24,97.42,48.97,199.24,49.77,302.76h-431.93Z"/>
  <path class="cls-1" d="M291.48,914.7c.14-.02.28-.04.42-.05.25-.04.51-.08.77-.11-.4.05-.8.1-1.19.17ZM303.02,914.55c.25.03.5.07.75.11.14.01.29.03.43.05-.39-.05-.79-.11-1.18-.17ZM303.02,914.55c.25.03.5.07.75.11.14.01.29.03.43.05-.39-.05-.79-.11-1.18-.17ZM291.48,914.7c.14-.02.28-.04.42-.05.25-.04.51-.08.77-.11-.4.05-.8.1-1.19.17ZM291.48,914.7c.14-.02.28-.04.42-.05.25-.04.51-.08.77-.11-.4.05-.8.1-1.19.17ZM303.02,914.55c.25.03.5.07.75.11.14.01.29.03.43.05-.39-.05-.79-.11-1.18-.17ZM303.77,914.67c.14.01.29.03.43.05-.39-.05-.79-.11-1.18-.17.25.03.5.07.75.11ZM291.9,914.65c.25-.04.51-.08.77-.11-.4.05-.8.1-1.19.17.14-.02.28-.04.42-.05ZM458.23,860.11c-26.91-26.92-62.7-41.74-100.76-41.74s-73.84,14.82-100.76,41.74c-26.91,26.91-41.74,62.7-41.74,100.76s14.83,73.84,41.74,100.76c26.92,26.91,62.7,41.74,100.76,41.74s73.85-14.83,100.76-41.74c26.92-26.92,41.74-62.7,41.74-100.76s-14.82-73.85-41.74-100.76ZM293.08,938.83c0-11.25,5.73-20.74,13.55-23.64-.95-.21-1.91-.38-2.87-.53-3.94-.5-7.92-.52-11.87-.02-1.23.2-2.43.43-3.64.71-2.42.58-4.71-.75-5.48-3.11-.71-2.24.85-4.94,3.12-5.48,4.01-.95,8.16-1.44,12.28-1.4,14.42.13,28.9,6.31,38.57,17.07,1.67,1.85,1.71,4.44,0,6.3-1.56,1.71-4.73,1.74-6.3,0-.98-1.1-2.01-2.14-3.09-3.13,1.85,3.81,2.92,8.35,2.92,13.21,0,13.57-8.32,24.58-18.6,24.58s-18.61-11.01-18.61-24.58ZM410.45,1035.84c-2.06.77-4.11.54-6.05-.16-3.19-1.06-6.23-2.27-9.35-3.31-21.71-7.34-45.49-7.65-67.4-.94-4.41,1.34-8.75,3.16-13.19,4.55-6.28,1.99-12.26-4.36-9.95-10.48,8.36-21.91,32.78-34.14,55.39-33.85,17.15-.11,35.22,6.56,46.66,19.63,3.68,4.22,6.8,8.95,8.72,14.22,1.52,4.19-.64,8.82-4.84,10.34ZM437.02,912.25c-.55,2.4-3.21,3.64-5.48,3.11-1.18-.28-2.38-.52-3.58-.7-3.96-.51-7.95-.5-11.91.01-1.79.27-3.57.64-5.32,1.11,7.1,3.46,12.17,12.49,12.17,23.06,0,13.57-8.33,24.58-18.61,24.58s-18.61-11.01-18.61-24.58c0-3.12.45-6.11,1.25-8.85-1.38.19-2.86-.29-3.88-1.23-1.83-1.69-1.55-4.57,0-6.3,2.75-3.05,5.92-5.74,9.33-8.03,11.99-8.13,27.44-11,41.53-7.64,2.42.58,3.62,3.19,3.11,5.48ZM303.02,914.55c.25.03.5.07.75.11.14.01.29.03.43.05-.39-.05-.79-.11-1.18-.17ZM291.48,914.7c.14-.02.28-.04.42-.05.25-.04.51-.08.77-.11-.4.05-.8.1-1.19.17ZM291.48,914.7c.14-.02.28-.04.42-.05.25-.04.51-.08.77-.11-.4.05-.8.1-1.19.17ZM303.02,914.55c.25.03.5.07.75.11.14.01.29.03.43.05-.39-.05-.79-.11-1.18-.17ZM303.02,914.55c.25.03.5.07.75.11.14.01.29.03.43.05-.39-.05-.79-.11-1.18-.17ZM291.48,914.7c.14-.02.28-.04.42-.05.25-.04.51-.08.77-.11-.4.05-.8.1-1.19.17Z"/>
  <path class="cls-1" d="M674.19,529.06c.12-.05.24-.1.36-.14.23-.1.47-.21.69-.3-.35.14-.7.3-1.06.45ZM689.64,524.8c.22-.03.42-.05.64-.07.18-.03.36-.06.54-.08l-1.18.16ZM689.64,524.8c.22-.03.42-.05.64-.07.18-.03.36-.06.54-.08l-1.18.16ZM674.19,529.06c.12-.05.24-.1.36-.14.23-.1.47-.21.69-.3-.35.14-.7.3-1.06.45ZM583.43,524.64c.18.02.36.05.54.08.22.02.42.04.64.07-.39-.05-.79-.1-1.18-.16ZM599.01,528.62c.23.09.47.2.69.3.12.04.24.09.36.14-.35-.14-.7-.3-1.06-.45ZM674.19,529.06c.12-.05.24-.1.36-.14.23-.1.47-.21.69-.3-.35.14-.7.3-1.06.45ZM689.64,524.8c.22-.03.42-.05.64-.07.18-.03.36-.06.54-.08l-1.18.16ZM689.64,524.8c.22-.03.42-.05.64-.07.18-.03.36-.06.54-.08l-1.18.16ZM674.56,528.92c.23-.1.47-.21.69-.3-.35.14-.7.3-1.06.45.12-.05.24-.1.36-.14ZM599.01,528.62c.23.09.47.2.69.3.12.04.24.09.36.14-.35-.14-.7-.3-1.06-.45ZM583.97,524.72c.22.02.42.04.64.07-.39-.05-.79-.1-1.18-.16.18.02.36.05.54.08ZM737.36,478.7c-26.91-26.91-62.69-41.74-100.76-41.74s-73.84,14.83-100.76,41.74c-26.91,26.92-41.74,62.7-41.74,100.76s14.83,73.85,41.74,100.76c26.92,26.92,62.7,41.74,100.76,41.74s73.85-14.82,100.76-41.74c26.92-26.91,41.75-62.69,41.75-100.76s-14.83-73.84-41.75-100.76ZM565.48,524.82c-1.24.2-2.3.14-3.43-.46-1.03-.54-1.7-1.58-2.04-2.66-.35-1.07-.11-2.47.45-3.43.51-.86,1.63-1.88,2.66-2.04,4.04-.64,8.1-1,12.19-.98,6.93.03,13.95.99,20.6,2.93,6.06,1.76,12.05,4.35,17.16,8.11.98.72,1.67,1.49,2.05,2.66.37,1.14.09,2.39-.45,3.43-.52.96-1.64,1.76-2.66,2.04-1,.28-2.56.2-3.43-.45-2.75-2.03-5.76-3.69-8.88-5.05-5.03-2.07-10.33-3.43-15.73-4.19-5.82-.74-11.73-.78-17.55-.05-.31.04-.62.09-.94.14ZM570.31,557.43c0-13.57,8.33-24.57,18.61-24.57s18.6,11,18.6,24.57-8.32,24.57-18.6,24.57-18.61-11-18.61-24.57ZM692.45,644.92c-1.47,1.89-3.68,2.89-5.9,2.89-1.59,0-3.2-.51-4.57-1.56-11.97-9.27-27.24-13.98-45.37-13.98s-33.41,4.71-45.39,13.98c-3.25,2.53-7.93,1.93-10.46-1.33-2.52-3.25-1.93-7.94,1.34-10.46,14.65-11.35,32.99-17.1,54.51-17.1s39.86,5.76,54.5,17.1c3.26,2.52,3.85,7.21,1.34,10.46ZM681.51,582c-10.27,0-18.6-11-18.6-24.57s8.32-24.57,18.6-24.57,18.61,11,18.61,24.57-8.33,24.57-18.61,24.57ZM714.24,521.7c-.24,1.07-1.12,2.12-2.04,2.66-1.11.65-2.21.64-3.43.46-.32-.05-.63-.1-.94-.14-5.82-.72-11.73-.68-17.55.05-5.39.77-10.7,2.12-15.73,4.19-3.13,1.37-6.13,3.02-8.88,5.05-2,1.47-4.89.26-6.09-1.59-.6-.95-.74-2.37-.45-3.43.33-1.2,1.08-1.96,2.05-2.66,2.65-1.96,5.53-3.57,8.54-4.91,12.93-5.76,27.46-7.34,41.4-5.15,1.12.18,2.07,1.13,2.66,2.04.65,1.01.7,2.29.45,3.43ZM689.64,524.8c.22-.03.42-.05.64-.07.18-.03.36-.06.54-.08l-1.18.16ZM674.19,529.06c.12-.05.24-.1.36-.14.23-.1.47-.21.69-.3-.35.14-.7.3-1.06.45ZM599.01,528.62c.23.09.47.2.69.3.12.04.24.09.36.14-.35-.14-.7-.3-1.06-.45ZM583.43,524.64c.18.02.36.05.54.08.22.02.42.04.64.07-.39-.05-.79-.1-1.18-.16ZM583.43,524.64c.18.02.36.05.54.08.22.02.42.04.64.07-.39-.05-.79-.1-1.18-.16ZM599.01,528.62c.23.09.47.2.69.3.12.04.24.09.36.14-.35-.14-.7-.3-1.06-.45ZM674.19,529.06c.12-.05.24-.1.36-.14.23-.1.47-.21.69-.3-.35.14-.7.3-1.06.45ZM689.64,524.8c.22-.03.42-.05.64-.07.18-.03.36-.06.54-.08l-1.18.16ZM689.64,524.8c.22-.03.42-.05.64-.07.18-.03.36-.06.54-.08l-1.18.16ZM674.19,529.06c.12-.05.24-.1.36-.14.23-.1.47-.21.69-.3-.35.14-.7.3-1.06.45ZM599.01,528.62c.23.09.47.2.69.3.12.04.24.09.36.14-.35-.14-.7-.3-1.06-.45ZM583.43,524.64c.18.02.36.05.54.08.22.02.42.04.64.07-.39-.05-.79-.1-1.18-.16ZM674.19,529.06c.12-.05.24-.1.36-.14.23-.1.47-.21.69-.3-.35.14-.7.3-1.06.45ZM689.64,524.8c.22-.03.42-.05.64-.07.18-.03.36-.06.54-.08l-1.18.16ZM689.64,524.8c.22-.03.42-.05.64-.07.18-.03.36-.06.54-.08l-1.18.16ZM674.19,529.06c.12-.05.24-.1.36-.14.23-.1.47-.21.69-.3-.35.14-.7.3-1.06.45Z"/>
  <path class="cls-1" d="M1200.76,333.67c-26.92-26.91-62.7-41.74-100.76-41.74s-73.84,14.83-100.76,41.74c-26.91,26.92-41.74,62.7-41.74,100.76s14.83,73.85,41.74,100.76c26.92,26.92,62.7,41.74,100.76,41.74s73.84-14.82,100.76-41.74c26.91-26.91,41.74-62.69,41.74-100.76s-14.83-73.84-41.74-100.76ZM1028.62,375.49c-.1-2.4,2.12-4.45,4.45-4.45h38.46c2.5,0,4.34,2.04,4.44,4.45.11,2.4-2.12,4.45-4.44,4.45h-38.46c-2.5,0-4.34-2.04-4.45-4.45ZM1052.3,436.97c-10.27,0-18.6-11-18.6-24.57s8.32-24.57,18.6-24.57,18.61,11,18.61,24.57-8.32,24.57-18.61,24.57ZM1124.79,495.01h-49.57c-4.12,0-7.45-3.34-7.45-7.45s3.33-7.45,7.45-7.45h49.57c4.12,0,7.45,3.33,7.45,7.45s-3.33,7.45-7.45,7.45ZM1144.91,436.97c-10.28,0-18.61-11-18.61-24.57s8.32-24.57,18.61-24.57,18.6,11,18.6,24.57-8.32,24.57-18.6,24.57ZM1164.14,379.94h-38.46c-2.5,0-4.34-2.04-4.44-4.45-.11-2.4,2.12-4.45,4.44-4.45h38.46c2.5,0,4.34,2.04,4.45,4.45.1,2.4-2.12,4.45-4.45,4.45Z"/>
  <path class="cls-1" d="M1501.85,529.06c.17-.07.32-.13.49-.19.2-.09.38-.18.58-.26-.35.14-.7.3-1.07.45ZM1517.3,524.8c.23-.03.46-.06.68-.08.17-.02.34-.05.51-.07-.39.05-.8.1-1.19.16ZM1534.99,524.6c.17.02.33.04.5.07.23.02.46.05.68.08-.39-.05-.79-.1-1.18-.16ZM1534.99,524.6c.17.02.33.04.5.07.23.02.46.05.68.08-.39-.05-.79-.1-1.18-.16ZM1517.3,524.8c.23-.03.46-.06.68-.08.17-.02.34-.05.51-.07-.39.05-.8.1-1.19.16ZM1501.85,529.06c.17-.07.32-.13.49-.19.2-.09.38-.18.58-.26-.35.14-.7.3-1.07.45ZM1501.85,529.06c.17-.07.32-.13.49-.19.2-.09.38-.18.58-.26-.35.14-.7.3-1.07.45ZM1517.3,524.8c.23-.03.46-.06.68-.08.17-.02.34-.05.51-.07-.39.05-.8.1-1.19.16ZM1534.99,524.6c.17.02.33.04.5.07.23.02.46.05.68.08-.39-.05-.79-.1-1.18-.16ZM1534.99,524.6c.17.02.33.04.5.07.23.02.46.05.68.08-.39-.05-.79-.1-1.18-.16ZM1517.3,524.8c.23-.03.46-.06.68-.08.17-.02.34-.05.51-.07-.39.05-.8.1-1.19.16ZM1501.85,529.06c.17-.07.32-.13.49-.19.2-.09.38-.18.58-.26-.35.14-.7.3-1.07.45ZM1501.85,529.06c.17-.07.32-.13.49-.19.2-.09.38-.18.58-.26-.35.14-.7.3-1.07.45ZM1517.3,524.8c.23-.03.46-.06.68-.08.17-.02.34-.05.51-.07-.39.05-.8.1-1.19.16ZM1534.99,524.6c.17.02.33.04.5.07.23.02.46.05.68.08-.39-.05-.79-.1-1.18-.16ZM1591.67,524.76c.24-.03.49-.06.72-.08.16-.03.31-.05.47-.07-.39.05-.8.1-1.19.16ZM1609.36,524.64c.18.02.36.05.54.08.22.02.42.04.64.07-.39-.05-.79-.1-1.18-.16ZM1624.92,528.62c.2.08.38.17.58.26.17.05.32.11.49.19-.35-.14-.71-.3-1.07-.45ZM1624.92,528.62c.2.08.38.17.58.26.17.05.32.11.49.19-.35-.14-.71-.3-1.07-.45ZM1609.36,524.64c.18.02.36.05.54.08.22.02.42.04.64.07-.39-.05-.79-.1-1.18-.16ZM1591.67,524.76c.24-.03.49-.06.72-.08.16-.03.31-.05.47-.07-.39.05-.8.1-1.19.16ZM1534.99,524.6c.17.02.33.04.5.07.23.02.46.05.68.08-.39-.05-.79-.1-1.18-.16ZM1517.3,524.8c.23-.03.46-.06.68-.08.17-.02.34-.05.51-.07-.39.05-.8.1-1.19.16ZM1501.85,529.06c.17-.07.32-.13.49-.19.2-.09.38-.18.58-.26-.35.14-.7.3-1.07.45ZM1501.85,529.06c.17-.07.32-.13.49-.19.2-.09.38-.18.58-.26-.35.14-.7.3-1.07.45ZM1517.3,524.8c.23-.03.46-.06.68-.08.17-.02.34-.05.51-.07-.39.05-.8.1-1.19.16ZM1534.99,524.6c.17.02.33.04.5.07.23.02.46.05.68.08-.39-.05-.79-.1-1.18-.16ZM1591.67,524.76c.24-.03.49-.06.72-.08.16-.03.31-.05.47-.07-.39.05-.8.1-1.19.16ZM1609.36,524.64c.18.02.36.05.54.08.22.02.42.04.64.07-.39-.05-.79-.1-1.18-.16ZM1624.92,528.62c.2.08.38.17.58.26.17.05.32.11.49.19-.35-.14-.71-.3-1.07-.45ZM1624.92,528.62c.2.08.38.17.58.26.17.05.32.11.49.19-.35-.14-.71-.3-1.07-.45ZM1609.36,524.64c.18.02.36.05.54.08.22.02.42.04.64.07-.39-.05-.79-.1-1.18-.16ZM1591.67,524.76c.24-.03.49-.06.72-.08.16-.03.31-.05.47-.07-.39.05-.8.1-1.19.16ZM1534.99,524.6c.17.02.33.04.5.07.23.02.46.05.68.08-.39-.05-.79-.1-1.18-.16ZM1517.3,524.8c.23-.03.46-.06.68-.08.17-.02.34-.05.51-.07-.39.05-.8.1-1.19.16ZM1501.85,529.06c.17-.07.32-.13.49-.19.2-.09.38-.18.58-.26-.35.14-.7.3-1.07.45ZM1501.85,529.06c.17-.07.32-.13.49-.19.2-.09.38-.18.58-.26-.35.14-.7.3-1.07.45ZM1517.3,524.8c.23-.03.46-.06.68-.08.17-.02.34-.05.51-.07-.39.05-.8.1-1.19.16ZM1534.99,524.6c.17.02.33.04.5.07.23.02.46.05.68.08-.39-.05-.79-.1-1.18-.16ZM1591.67,524.76c.24-.03.49-.06.72-.08.16-.03.31-.05.47-.07-.39.05-.8.1-1.19.16ZM1609.36,524.64c.18.02.36.05.54.08.22.02.42.04.64.07-.39-.05-.79-.1-1.18-.16ZM1624.92,528.62c.2.08.38.17.58.26.17.05.32.11.49.19-.35-.14-.71-.3-1.07-.45ZM1624.92,528.62c.2.08.38.17.58.26.17.05.32.11.49.19-.35-.14-.71-.3-1.07-.45ZM1609.9,524.72c.22.02.42.04.64.07-.39-.05-.79-.1-1.18-.16.18.02.36.05.54.08ZM1592.39,524.67c.16-.03.31-.05.47-.07-.39.05-.8.1-1.19.16.24-.03.49-.06.72-.08ZM1534.99,524.6c.17.02.33.04.5.07.23.02.46.05.68.08-.39-.05-.79-.1-1.18-.16ZM1517.98,524.71c.17-.02.34-.05.51-.07-.39.05-.8.1-1.19.16.23-.03.46-.06.68-.08ZM1502.34,528.88c.2-.09.38-.18.58-.26-.35.14-.7.3-1.07.45.17-.07.32-.13.49-.19ZM1664.15,478.7c-26.91-26.91-62.69-41.74-100.75-41.74s-73.85,14.83-100.76,41.74c-26.92,26.92-41.75,62.7-41.75,100.76s14.83,73.85,41.75,100.76c26.91,26.92,62.69,41.74,100.76,41.74s73.84-14.82,100.75-41.74c26.92-26.91,41.75-62.69,41.75-100.76s-14.83-73.84-41.75-100.76ZM1487.25,532.38c-.61-.95-.75-2.37-.45-3.43.33-1.2,1.08-1.96,2.04-2.66,2.66-1.96,5.54-3.57,8.55-4.91,12.93-5.76,27.46-7.34,41.4-5.15,1.12.18,2.07,1.13,2.66,2.04.65,1.01.7,2.29.45,3.43-.24,1.07-1.12,2.12-2.04,2.66-1.12.65-2.22.64-3.44.46-.31-.05-.63-.1-.94-.14-5.82-.72-11.7-.68-17.51.04-5.36.77-10.62,2.1-15.64,4.16-3.17,1.38-6.2,3.04-9,5.09-2.01,1.47-4.9.26-6.09-1.59ZM1497.1,557.43c0-13.57,8.33-24.57,18.61-24.57s18.6,11,18.6,24.57-8.32,24.57-18.6,24.57-18.61-11-18.61-24.57ZM1617.9,630.72c-14.64,11.35-32.99,17.09-54.5,17.09s-39.86-5.75-54.51-17.09c-3.26-2.53-3.85-7.21-1.34-10.47,2.53-3.25,7.21-3.85,10.47-1.33,11.97,9.28,27.24,13.98,45.38,13.98s33.4-4.7,45.38-13.98c1.36-1.06,2.96-1.56,4.56-1.56,2.23,0,4.43.99,5.9,2.89,2.52,3.26,1.93,7.94-1.34,10.47ZM1608.31,582c-10.27,0-18.6-11-18.6-24.57s8.32-24.57,18.6-24.57,18.61,11,18.61,24.57-8.33,24.57-18.61,24.57ZM1640.59,532.38c-.51.96-1.63,1.76-2.66,2.04-.99.28-2.56.2-3.43-.45-2.8-2.05-5.83-3.72-9-5.09-5-2.06-10.26-3.4-15.6-4.15-5.81-.72-11.69-.78-17.51-.05-.33.04-.66.09-.98.14-1.25.2-2.31.14-3.43-.46-1.04-.54-1.7-1.58-2.05-2.66-.34-1.07-.1-2.47.46-3.43.5-.86,1.63-1.88,2.65-2.04,4.04-.64,8.11-1,12.19-.98,6.93.03,13.95.99,20.6,2.93,6.07,1.76,12.06,4.35,17.17,8.11.98.72,1.67,1.49,2.04,2.66.37,1.14.1,2.39-.45,3.43ZM1624.92,528.62c.2.08.38.17.58.26.17.05.32.11.49.19-.35-.14-.71-.3-1.07-.45ZM1609.36,524.64c.18.02.36.05.54.08.22.02.42.04.64.07-.39-.05-.79-.1-1.18-.16ZM1591.67,524.76c.24-.03.49-.06.72-.08.16-.03.31-.05.47-.07-.39.05-.8.1-1.19.16ZM1534.99,524.6c.17.02.33.04.5.07.23.02.46.05.68.08-.39-.05-.79-.1-1.18-.16ZM1517.3,524.8c.23-.03.46-.06.68-.08.17-.02.34-.05.51-.07-.39.05-.8.1-1.19.16ZM1501.85,529.06c.17-.07.32-.13.49-.19.2-.09.38-.18.58-.26-.35.14-.7.3-1.07.45ZM1501.85,529.06c.17-.07.32-.13.49-.19.2-.09.38-.18.58-.26-.35.14-.7.3-1.07.45ZM1517.3,524.8c.23-.03.46-.06.68-.08.17-.02.34-.05.51-.07-.39.05-.8.1-1.19.16ZM1534.99,524.6c.17.02.33.04.5.07.23.02.46.05.68.08-.39-.05-.79-.1-1.18-.16ZM1591.67,524.76c.24-.03.49-.06.72-.08.16-.03.31-.05.47-.07-.39.05-.8.1-1.19.16ZM1609.36,524.64c.18.02.36.05.54.08.22.02.42.04.64.07-.39-.05-.79-.1-1.18-.16ZM1624.92,528.62c.2.08.38.17.58.26.17.05.32.11.49.19-.35-.14-.71-.3-1.07-.45ZM1624.92,528.62c.2.08.38.17.58.26.17.05.32.11.49.19-.35-.14-.71-.3-1.07-.45ZM1609.36,524.64c.18.02.36.05.54.08.22.02.42.04.64.07-.39-.05-.79-.1-1.18-.16ZM1591.67,524.76c.24-.03.49-.06.72-.08.16-.03.31-.05.47-.07-.39.05-.8.1-1.19.16ZM1534.99,524.6c.17.02.33.04.5.07.23.02.46.05.68.08-.39-.05-.79-.1-1.18-.16ZM1517.3,524.8c.23-.03.46-.06.68-.08.17-.02.34-.05.51-.07-.39.05-.8.1-1.19.16ZM1501.85,529.06c.17-.07.32-.13.49-.19.2-.09.38-.18.58-.26-.35.14-.7.3-1.07.45ZM1501.85,529.06c.17-.07.32-.13.49-.19.2-.09.38-.18.58-.26-.35.14-.7.3-1.07.45ZM1517.3,524.8c.23-.03.46-.06.68-.08.17-.02.34-.05.51-.07-.39.05-.8.1-1.19.16ZM1534.99,524.6c.17.02.33.04.5.07.23.02.46.05.68.08-.39-.05-.79-.1-1.18-.16ZM1591.67,524.76c.24-.03.49-.06.72-.08.16-.03.31-.05.47-.07-.39.05-.8.1-1.19.16ZM1609.36,524.64c.18.02.36.05.54.08.22.02.42.04.64.07-.39-.05-.79-.1-1.18-.16ZM1624.92,528.62c.2.08.38.17.58.26.17.05.32.11.49.19-.35-.14-.71-.3-1.07-.45ZM1624.92,528.62c.2.08.38.17.58.26.17.05.32.11.49.19-.35-.14-.71-.3-1.07-.45ZM1609.36,524.64c.18.02.36.05.54.08.22.02.42.04.64.07-.39-.05-.79-.1-1.18-.16ZM1591.67,524.76c.24-.03.49-.06.72-.08.16-.03.31-.05.47-.07-.39.05-.8.1-1.19.16ZM1534.99,524.6c.17.02.33.04.5.07.23.02.46.05.68.08-.39-.05-.79-.1-1.18-.16ZM1517.3,524.8c.23-.03.46-.06.68-.08.17-.02.34-.05.51-.07-.39.05-.8.1-1.19.16ZM1501.85,529.06c.17-.07.32-.13.49-.19.2-.09.38-.18.58-.26-.35.14-.7.3-1.07.45ZM1501.85,529.06c.17-.07.32-.13.49-.19.2-.09.38-.18.58-.26-.35.14-.7.3-1.07.45ZM1517.3,524.8c.23-.03.46-.06.68-.08.17-.02.34-.05.51-.07-.39.05-.8.1-1.19.16ZM1534.99,524.6c.17.02.33.04.5.07.23.02.46.05.68.08-.39-.05-.79-.1-1.18-.16ZM1591.67,524.76c.24-.03.49-.06.72-.08.16-.03.31-.05.47-.07-.39.05-.8.1-1.19.16ZM1609.36,524.64c.18.02.36.05.54.08.22.02.42.04.64.07-.39-.05-.79-.1-1.18-.16ZM1624.92,528.62c.2.08.38.17.58.26.17.05.32.11.49.19-.35-.14-.71-.3-1.07-.45ZM1624.92,528.62c.2.08.38.17.58.26.17.05.32.11.49.19-.35-.14-.71-.3-1.07-.45ZM1609.36,524.64c.18.02.36.05.54.08.22.02.42.04.64.07-.39-.05-.79-.1-1.18-.16ZM1591.67,524.76c.24-.03.49-.06.72-.08.16-.03.31-.05.47-.07-.39.05-.8.1-1.19.16ZM1534.99,524.6c.17.02.33.04.5.07.23.02.46.05.68.08-.39-.05-.79-.1-1.18-.16ZM1517.3,524.8c.23-.03.46-.06.68-.08.17-.02.34-.05.51-.07-.39.05-.8.1-1.19.16ZM1501.85,529.06c.17-.07.32-.13.49-.19.2-.09.38-.18.58-.26-.35.14-.7.3-1.07.45ZM1501.85,529.06c.17-.07.32-.13.49-.19.2-.09.38-.18.58-.26-.35.14-.7.3-1.07.45ZM1517.3,524.8c.23-.03.46-.06.68-.08.17-.02.34-.05.51-.07-.39.05-.8.1-1.19.16ZM1534.99,524.6c.17.02.33.04.5.07.23.02.46.05.68.08-.39-.05-.79-.1-1.18-.16ZM1534.99,524.6c.17.02.33.04.5.07.23.02.46.05.68.08-.39-.05-.79-.1-1.18-.16ZM1517.3,524.8c.23-.03.46-.06.68-.08.17-.02.34-.05.51-.07-.39.05-.8.1-1.19.16ZM1501.85,529.06c.17-.07.32-.13.49-.19.2-.09.38-.18.58-.26-.35.14-.7.3-1.07.45Z"/>
  <path class="cls-1" d="M1894.77,891.64c.13.02.27.04.4.06.26.03.52.06.78.09-.39-.05-.79-.1-1.18-.16ZM1905.6,894.47c.12.05.25.1.37.17.24.09.47.19.69.28-.35-.14-.71-.3-1.07-.45ZM1905.97,894.63c.24.09.47.19.69.28-.35-.14-.71-.3-1.07-.45.12.05.25.1.37.17ZM1895.18,891.7c.26.03.52.06.78.09-.39-.05-.79-.1-1.18-.16.13.02.27.04.4.06ZM1943.3,860.11c-26.92-26.92-62.7-41.74-100.76-41.74s-73.85,14.82-100.76,41.74c-26.92,26.91-41.74,62.7-41.74,100.76s14.82,73.84,41.74,100.76c26.91,26.91,62.7,41.74,100.76,41.74s73.84-14.83,100.76-41.74c26.91-26.92,41.74-62.7,41.74-100.76s-14.83-73.85-41.74-100.76ZM1774.91,900.54c.05-.04.1-.08.16-.12.06-.04.09-.08.12-.1-.09.05-.33.25-.42.33.02-.01.03-.03.06-.04-.13.1-.27.22-.4.32-.39.32-.78.65-1.16.98-.77.66-1.51,1.35-2.24,2.06-1.45,1.42-2.81,2.92-4.07,4.5-.71.9-2.04,1.25-3.14,1.3-1.19.05-2.3-.53-3.15-1.3-.82-.75-1.3-2.05-1.3-3.15,0-1.27.54-2.18,1.3-3.15,1.79-2.25,3.78-4.35,5.94-6.25,4.02-3.55,8.53-6.58,13.43-8.77,5.26-2.35,10.66-3.83,16.4-4.42,2.47-.26,4.35,2.25,4.44,4.45.05,1.11-.53,2.37-1.3,3.14-.89.9-1.93,1.18-3.14,1.3-.21.02-.42.05-.63.07-3.69.54-7.3,1.53-10.76,2.92-3.61,1.56-7,3.56-10.15,5.92ZM1788.81,954.46c-.64-1-.79-2.51-.48-3.63.35-1.28,1.15-2.04,2.16-2.81.42-.32.85-.65,1.27-.97.31-.25.63-.5.95-.74,3.16-2.45,6.28-4.93,9.35-7.46-3.27-2.71-6.61-5.34-9.96-7.94-.11-.09-.23-.18-.34-.27-.42-.32-.85-.65-1.27-.97-1.04-.78-1.76-1.56-2.16-2.81-.39-1.21-.1-2.54.48-3.63.54-1.01,1.72-1.85,2.82-2.16,1.04-.28,2.71-.21,3.62.48,5.93,4.5,11.79,9.11,17.43,13.98,1.82,1.57,1.82,5.07,0,6.66-5.63,4.87-11.49,9.47-17.43,13.98-.98.75-2.47.74-3.62.47-1.2-.27-2.17-1.15-2.82-2.15ZM1900.89,1002.5c-1.93,5.26-5.05,9.98-8.72,14.21-11.45,13.08-29.53,19.75-46.67,19.63-22.61.29-47.04-11.93-55.39-33.84-2.31-6.13,3.68-12.48,9.95-10.49,4.44,1.4,8.78,3.22,13.2,4.55,21.9,6.71,45.68,6.4,67.39-.93,3.13-1.06,6.17-2.26,9.35-3.32,1.94-.69,3.99-.92,6.05-.16,4.19,1.52,6.36,6.15,4.85,10.35ZM1902.18,954.46c-.54,1.01-1.72,1.85-2.82,2.15-1.04.29-2.71.22-3.62-.47-5.93-4.5-11.79-9.11-17.43-13.98-1.82-1.57-1.82-5.08,0-6.66,5.63-4.87,11.49-9.47,17.43-13.98.98-.75,2.48-.74,3.62-.48,1.2.28,2.17,1.16,2.82,2.16.64,1,.79,2.51.48,3.63-.35,1.28-1.15,2.04-2.16,2.81-.54.41-1.08.83-1.62,1.24-3.35,2.6-6.69,5.23-9.96,7.94,3.06,2.54,6.19,5.01,9.35,7.46.21.16.41.31.61.47.54.41,1.08.83,1.62,1.24,1.04.78,1.76,1.56,2.16,2.81.39,1.21.1,2.54-.48,3.63ZM1930.33,908.47c-.75.82-2.05,1.3-3.14,1.3-1.01,0-2.48-.47-3.15-1.3-1.26-1.58-2.62-3.09-4.07-4.5-.72-.71-1.47-1.4-2.24-2.06-.41-.36-.83-.71-1.25-1.06-.08-.06-.17-.13-.25-.21-.03-.03-.06-.06-.11-.08-.03-.03-.06-.06-.1-.08.02.02.05.04.07.06-3.16-2.34-6.51-4.35-10.12-5.91-3.47-1.4-7.09-2.39-10.8-2.93-.21-.03-.41-.05-.61-.07-1.24-.12-2.24-.46-3.15-1.3-.88-.8-1.25-1.99-1.3-3.14-.05-1.11.53-2.38,1.3-3.15.72-.74,2.08-1.42,3.15-1.3,3.18.33,6.34.88,9.41,1.78,10.27,3.03,19.68,9.3,26.35,17.66.78.97,1.25,1.89,1.3,3.15.05,1.19-.52,2.3-1.3,3.15ZM1905.6,894.47c.12.05.25.1.37.17.24.09.47.19.69.28-.35-.14-.71-.3-1.07-.45ZM1894.77,891.64c.13.02.27.04.4.06.26.03.52.06.78.09-.39-.05-.79-.1-1.18-.16ZM1795.04,891.79c.26-.03.51-.06.77-.09.13-.02.28-.04.41-.06-.39.05-.79.1-1.18.16ZM1784.33,894.91c.24-.1.48-.2.72-.29l.34-.16c-.35.14-.7.3-1.07.45Z"/>
</svg>