<?xml version="1.0" encoding="UTF-8"?>
<svg id="Objects" xmlns="http://www.w3.org/2000/svg" version="1.1" viewBox="0 0 2200 1466">
  <defs>
    <style>
      .cls-1 {
        fill: #ed9a33;
      }

      .cls-1, .cls-2, .cls-3, .cls-4, .cls-5, .cls-6 {
        stroke-width: 0px;
      }

      .cls-2 {
        fill: #9ed042;
      }

      .cls-3 {
        fill: #e23e44;
      }

      .cls-4 {
        fill: #eec000;
      }

      .cls-5 {
        fill: #fff;
      }

      .cls-6 {
        fill: #1bc76d;
      }
    </style>
  </defs>
  <path class="cls-3" d="M544.37,1188.1H112.44c.8-103.52,17.53-205.34,49.77-302.76,31.15-94.13,76.29-182.82,134.21-263.71l349.47,253.91c-64.99,91.91-99.99,199.65-101.53,312.56Z"/>
  <path class="cls-1" d="M772.66,746.78c-44.83,32.74-84.38,71.81-117.62,116.2l-265.71-193.05-83.76-60.86c59.85-80.9,131.37-151.98,212.69-211.35,82.34-60.12,172.84-106.84,269.11-138.93l82.29,253.26,51.22,157.64c-52.98,18.03-102.8,43.95-148.21,77.1Z"/>
  <path class="cls-4" d="M935.64,664.89l-113.2-348.41-20.3-62.49c96-30.34,196.18-45.72,297.87-45.72s201.85,15.38,297.87,45.71l-133.51,410.9c-53.05-16.4-108.29-24.71-164.35-24.71s-111.32,8.31-164.36,24.71Z"/>
  <path class="cls-2" d="M1427.34,746.77c-45.41-33.16-95.23-59.07-148.21-77.09l116.99-360.06,16.52-50.84c96.28,32.1,186.77,78.82,269.11,138.94,81.32,59.37,152.84,130.45,212.69,211.35l-239.13,173.75-110.34,80.16c-33.25-44.39-72.79-83.46-117.63-116.2Z"/>
  <path class="cls-6" d="M1655.63,1188.1c-1.54-112.91-36.53-220.66-101.53-312.56l349.47-253.91c57.92,80.9,103.06,169.58,134.21,263.71,32.24,97.42,48.97,199.24,49.77,302.76h-431.93Z"/>
  <path class="cls-5" d="M291.48,914.7c.14-.02.28-.04.42-.05.25-.04.51-.08.77-.11-.4.05-.8.1-1.19.17ZM303.02,914.55c.25.03.5.07.75.11.14.01.29.03.43.05-.39-.05-.79-.11-1.18-.17ZM303.02,914.55c.25.03.5.07.75.11.14.01.29.03.43.05-.39-.05-.79-.11-1.18-.17ZM291.48,914.7c.14-.02.28-.04.42-.05.25-.04.51-.08.77-.11-.4.05-.8.1-1.19.17ZM291.48,914.7c.14-.02.28-.04.42-.05.25-.04.51-.08.77-.11-.4.05-.8.1-1.19.17ZM303.02,914.55c.25.03.5.07.75.11.14.01.29.03.43.05-.39-.05-.79-.11-1.18-.17ZM303.77,914.67c.14.01.29.03.43.05-.39-.05-.79-.11-1.18-.17.25.03.5.07.75.11ZM291.9,914.65c.25-.04.51-.08.77-.11-.4.05-.8.1-1.19.17.14-.02.28-.04.42-.05ZM458.23,860.11c-26.91-26.92-62.7-41.74-100.76-41.74s-73.84,14.82-100.76,41.74c-26.91,26.91-41.74,62.7-41.74,100.76s14.83,73.84,41.74,100.76c26.92,26.91,62.7,41.74,100.76,41.74s73.85-14.83,100.76-41.74c26.92-26.92,41.74-62.7,41.74-100.76s-14.82-73.85-41.74-100.76ZM293.08,938.83c0-11.25,5.73-20.74,13.55-23.64-.95-.21-1.91-.38-2.87-.53-3.94-.5-7.92-.52-11.87-.02-1.23.2-2.43.43-3.64.71-2.42.58-4.71-.75-5.48-3.11-.71-2.24.85-4.94,3.12-5.48,4.01-.95,8.16-1.44,12.28-1.4,14.42.13,28.9,6.31,38.57,17.07,1.67,1.85,1.71,4.44,0,6.3-1.56,1.71-4.73,1.74-6.3,0-.98-1.1-2.01-2.14-3.09-3.13,1.85,3.81,2.92,8.35,2.92,13.21,0,13.57-8.32,24.58-18.6,24.58s-18.61-11.01-18.61-24.58ZM410.45,1035.84c-2.06.77-4.11.54-6.05-.16-3.19-1.06-6.23-2.27-9.35-3.31-21.71-7.34-45.49-7.65-67.4-.94-4.41,1.34-8.75,3.16-13.19,4.55-6.28,1.99-12.26-4.36-9.95-10.48,8.36-21.91,32.78-34.14,55.39-33.85,17.15-.11,35.22,6.56,46.66,19.63,3.68,4.22,6.8,8.95,8.72,14.22,1.52,4.19-.64,8.82-4.84,10.34ZM437.02,912.25c-.55,2.4-3.21,3.64-5.48,3.11-1.18-.28-2.38-.52-3.58-.7-3.96-.51-7.95-.5-11.91.01-1.79.27-3.57.64-5.32,1.11,7.1,3.46,12.17,12.49,12.17,23.06,0,13.57-8.33,24.58-18.61,24.58s-18.61-11.01-18.61-24.58c0-3.12.45-6.11,1.25-8.85-1.38.19-2.86-.29-3.88-1.23-1.83-1.69-1.55-4.57,0-6.3,2.75-3.05,5.92-5.74,9.33-8.03,11.99-8.13,27.44-11,41.53-7.64,2.42.58,3.62,3.19,3.11,5.48ZM303.02,914.55c.25.03.5.07.75.11.14.01.29.03.43.05-.39-.05-.79-.11-1.18-.17ZM291.48,914.7c.14-.02.28-.04.42-.05.25-.04.51-.08.77-.11-.4.05-.8.1-1.19.17ZM291.48,914.7c.14-.02.28-.04.42-.05.25-.04.51-.08.77-.11-.4.05-.8.1-1.19.17ZM303.02,914.55c.25.03.5.07.75.11.14.01.29.03.43.05-.39-.05-.79-.11-1.18-.17ZM303.02,914.55c.25.03.5.07.75.11.14.01.29.03.43.05-.39-.05-.79-.11-1.18-.17ZM291.48,914.7c.14-.02.28-.04.42-.05.25-.04.51-.08.77-.11-.4.05-.8.1-1.19.17Z"/>
  <path class="cls-5" d="M1776.55,913.14c.14-.02.28-.04.42-.05.25-.04.51-.08.77-.11-.4.05-.8.1-1.19.17ZM1788.1,912.99c.25.03.5.07.75.11.14.01.29.03.43.05-.39-.05-.79-.11-1.18-.17ZM1788.1,912.99c.25.03.5.07.75.11.14.01.29.03.43.05-.39-.05-.79-.11-1.18-.17ZM1776.55,913.14c.14-.02.28-.04.42-.05.25-.04.51-.08.77-.11-.4.05-.8.1-1.19.17ZM1776.55,913.14c.14-.02.28-.04.42-.05.25-.04.51-.08.77-.11-.4.05-.8.1-1.19.17ZM1788.1,912.99c.25.03.5.07.75.11.14.01.29.03.43.05-.39-.05-.79-.11-1.18-.17ZM1788.84,913.1c.14.01.29.03.43.05-.39-.05-.79-.11-1.18-.17.25.03.5.07.75.11ZM1776.98,913.08c.25-.04.51-.08.77-.11-.4.05-.8.1-1.19.17.14-.02.28-.04.42-.05ZM1943.3,858.55c-26.91-26.92-62.7-41.74-100.76-41.74s-73.84,14.82-100.76,41.74c-26.91,26.91-41.74,62.7-41.74,100.76s14.83,73.84,41.74,100.76c26.92,26.91,62.7,41.74,100.76,41.74s73.85-14.83,100.76-41.74c26.92-26.92,41.74-62.7,41.74-100.76s-14.82-73.85-41.74-100.76ZM1778.16,937.27c0-11.25,5.73-20.74,13.55-23.64-.95-.21-1.91-.38-2.87-.53-3.94-.5-7.92-.52-11.87-.02-1.23.2-2.43.43-3.64.71-2.42.58-4.71-.75-5.48-3.11-.71-2.24.85-4.94,3.12-5.48,4.01-.95,8.16-1.44,12.28-1.4,14.42.13,28.9,6.31,38.57,17.07,1.67,1.85,1.71,4.44,0,6.3-1.56,1.71-4.73,1.74-6.3,0-.98-1.1-2.01-2.14-3.09-3.13,1.85,3.81,2.92,8.35,2.92,13.21,0,13.57-8.32,24.58-18.6,24.58s-18.61-11.01-18.61-24.58ZM1895.53,1034.27c-2.06.77-4.11.54-6.05-.16-3.19-1.06-6.23-2.27-9.35-3.31-21.71-7.34-45.49-7.65-67.4-.94-4.41,1.34-8.75,3.16-13.19,4.55-6.28,1.99-12.26-4.36-9.95-10.48,8.36-21.91,32.78-34.14,55.39-33.85,17.15-.11,35.22,6.56,46.66,19.63,3.68,4.22,6.8,8.95,8.72,14.22,1.52,4.19-.64,8.82-4.84,10.34ZM1922.09,910.69c-.55,2.4-3.21,3.64-5.48,3.11-1.18-.28-2.38-.52-3.58-.7-3.96-.51-7.95-.5-11.91.01-1.79.27-3.57.64-5.32,1.11,7.1,3.46,12.17,12.49,12.17,23.06,0,13.57-8.33,24.58-18.61,24.58s-18.61-11.01-18.61-24.58c0-3.12.45-6.11,1.25-8.85-1.38.19-2.86-.29-3.88-1.23-1.83-1.69-1.55-4.57,0-6.3,2.75-3.05,5.92-5.74,9.33-8.03,11.99-8.13,27.44-11,41.53-7.64,2.42.58,3.62,3.19,3.11,5.48ZM1788.1,912.99c.25.03.5.07.75.11.14.01.29.03.43.05-.39-.05-.79-.11-1.18-.17ZM1776.55,913.14c.14-.02.28-.04.42-.05.25-.04.51-.08.77-.11-.4.05-.8.1-1.19.17ZM1776.55,913.14c.14-.02.28-.04.42-.05.25-.04.51-.08.77-.11-.4.05-.8.1-1.19.17ZM1788.1,912.99c.25.03.5.07.75.11.14.01.29.03.43.05-.39-.05-.79-.11-1.18-.17ZM1788.1,912.99c.25.03.5.07.75.11.14.01.29.03.43.05-.39-.05-.79-.11-1.18-.17ZM1776.55,913.14c.14-.02.28-.04.42-.05.25-.04.51-.08.77-.11-.4.05-.8.1-1.19.17Z"/>
  <path class="cls-5" d="M1038.45,384.03c.17-.07.32-.13.49-.19.2-.09.38-.18.58-.26-.35.14-.7.3-1.07.45ZM1053.9,379.76c.23-.03.46-.06.68-.08.17-.02.34-.05.51-.07-.39.05-.8.1-1.19.16ZM1071.59,379.57c.17.02.33.04.5.07.23.02.46.05.68.08-.39-.05-.79-.1-1.18-.16ZM1071.59,379.57c.17.02.33.04.5.07.23.02.46.05.68.08-.39-.05-.79-.1-1.18-.16ZM1053.9,379.76c.23-.03.46-.06.68-.08.17-.02.34-.05.51-.07-.39.05-.8.1-1.19.16ZM1038.45,384.03c.17-.07.32-.13.49-.19.2-.09.38-.18.58-.26-.35.14-.7.3-1.07.45ZM1038.45,384.03c.17-.07.32-.13.49-.19.2-.09.38-.18.58-.26-.35.14-.7.3-1.07.45ZM1053.9,379.76c.23-.03.46-.06.68-.08.17-.02.34-.05.51-.07-.39.05-.8.1-1.19.16ZM1071.59,379.57c.17.02.33.04.5.07.23.02.46.05.68.08-.39-.05-.79-.1-1.18-.16ZM1071.59,379.57c.17.02.33.04.5.07.23.02.46.05.68.08-.39-.05-.79-.1-1.18-.16ZM1053.9,379.76c.23-.03.46-.06.68-.08.17-.02.34-.05.51-.07-.39.05-.8.1-1.19.16ZM1038.45,384.03c.17-.07.32-.13.49-.19.2-.09.38-.18.58-.26-.35.14-.7.3-1.07.45ZM1038.45,384.03c.17-.07.32-.13.49-.19.2-.09.38-.18.58-.26-.35.14-.7.3-1.07.45ZM1053.9,379.76c.23-.03.46-.06.68-.08.17-.02.34-.05.51-.07-.39.05-.8.1-1.19.16ZM1071.59,379.57c.17.02.33.04.5.07.23.02.46.05.68.08-.39-.05-.79-.1-1.18-.16ZM1128.27,379.72c.24-.03.49-.06.72-.08.16-.03.31-.05.47-.07-.39.05-.8.1-1.19.16ZM1145.97,379.61c.18.02.36.05.54.08.22.02.42.04.64.07-.39-.05-.79-.1-1.18-.16ZM1161.53,383.58c.2.08.38.17.58.26.17.05.32.11.49.19-.35-.14-.71-.3-1.07-.45ZM1161.53,383.58c.2.08.38.17.58.26.17.05.32.11.49.19-.35-.14-.71-.3-1.07-.45ZM1145.97,379.61c.18.02.36.05.54.08.22.02.42.04.64.07-.39-.05-.79-.1-1.18-.16ZM1128.27,379.72c.24-.03.49-.06.72-.08.16-.03.31-.05.47-.07-.39.05-.8.1-1.19.16ZM1071.59,379.57c.17.02.33.04.5.07.23.02.46.05.68.08-.39-.05-.79-.1-1.18-.16ZM1053.9,379.76c.23-.03.46-.06.68-.08.17-.02.34-.05.51-.07-.39.05-.8.1-1.19.16ZM1038.45,384.03c.17-.07.32-.13.49-.19.2-.09.38-.18.58-.26-.35.14-.7.3-1.07.45ZM1038.45,384.03c.17-.07.32-.13.49-.19.2-.09.38-.18.58-.26-.35.14-.7.3-1.07.45ZM1053.9,379.76c.23-.03.46-.06.68-.08.17-.02.34-.05.51-.07-.39.05-.8.1-1.19.16ZM1071.59,379.57c.17.02.33.04.5.07.23.02.46.05.68.08-.39-.05-.79-.1-1.18-.16ZM1128.27,379.72c.24-.03.49-.06.72-.08.16-.03.31-.05.47-.07-.39.05-.8.1-1.19.16ZM1145.97,379.61c.18.02.36.05.54.08.22.02.42.04.64.07-.39-.05-.79-.1-1.18-.16ZM1161.53,383.58c.2.08.38.17.58.26.17.05.32.11.49.19-.35-.14-.71-.3-1.07-.45ZM1161.53,383.58c.2.08.38.17.58.26.17.05.32.11.49.19-.35-.14-.71-.3-1.07-.45ZM1145.97,379.61c.18.02.36.05.54.08.22.02.42.04.64.07-.39-.05-.79-.1-1.18-.16ZM1128.27,379.72c.24-.03.49-.06.72-.08.16-.03.31-.05.47-.07-.39.05-.8.1-1.19.16ZM1071.59,379.57c.17.02.33.04.5.07.23.02.46.05.68.08-.39-.05-.79-.1-1.18-.16ZM1053.9,379.76c.23-.03.46-.06.68-.08.17-.02.34-.05.51-.07-.39.05-.8.1-1.19.16ZM1038.45,384.03c.17-.07.32-.13.49-.19.2-.09.38-.18.58-.26-.35.14-.7.3-1.07.45ZM1038.45,384.03c.17-.07.32-.13.49-.19.2-.09.38-.18.58-.26-.35.14-.7.3-1.07.45ZM1053.9,379.76c.23-.03.46-.06.68-.08.17-.02.34-.05.51-.07-.39.05-.8.1-1.19.16ZM1071.59,379.57c.17.02.33.04.5.07.23.02.46.05.68.08-.39-.05-.79-.1-1.18-.16ZM1128.27,379.72c.24-.03.49-.06.72-.08.16-.03.31-.05.47-.07-.39.05-.8.1-1.19.16ZM1145.97,379.61c.18.02.36.05.54.08.22.02.42.04.64.07-.39-.05-.79-.1-1.18-.16ZM1161.53,383.58c.2.08.38.17.58.26.17.05.32.11.49.19-.35-.14-.71-.3-1.07-.45ZM1161.53,383.58c.2.08.38.17.58.26.17.05.32.11.49.19-.35-.14-.71-.3-1.07-.45ZM1146.5,379.69c.22.02.42.04.64.07-.39-.05-.79-.1-1.18-.16.18.02.36.05.54.08ZM1129,379.64c.16-.03.31-.05.47-.07-.39.05-.8.1-1.19.16.24-.03.49-.06.72-.08ZM1071.59,379.57c.17.02.33.04.5.07.23.02.46.05.68.08-.39-.05-.79-.1-1.18-.16ZM1054.58,379.68c.17-.02.34-.05.51-.07-.39.05-.8.1-1.19.16.23-.03.46-.06.68-.08ZM1038.94,383.84c.2-.09.38-.18.58-.26-.35.14-.7.3-1.07.45.17-.07.32-.13.49-.19ZM1200.76,333.67c-26.91-26.91-62.69-41.74-100.75-41.74s-73.85,14.83-100.76,41.74c-26.92,26.92-41.75,62.7-41.75,100.76s14.83,73.85,41.75,100.76c26.91,26.92,62.69,41.74,100.76,41.74s73.84-14.82,100.75-41.74c26.92-26.91,41.75-62.69,41.75-100.76s-14.83-73.84-41.75-100.76ZM1023.85,387.34c-.61-.95-.75-2.37-.45-3.43.33-1.2,1.08-1.96,2.04-2.66,2.66-1.96,5.54-3.57,8.55-4.91,12.93-5.76,27.46-7.34,41.4-5.15,1.12.18,2.07,1.13,2.66,2.04.65,1.01.7,2.29.45,3.43-.24,1.07-1.12,2.12-2.04,2.66-1.12.65-2.22.64-3.44.46-.31-.05-.63-.1-.94-.14-5.82-.72-11.7-.68-17.51.04-5.36.77-10.62,2.1-15.64,4.16-3.17,1.38-6.2,3.04-9,5.09-2.01,1.47-4.9.26-6.09-1.59ZM1033.7,412.4c0-13.57,8.33-24.57,18.61-24.57s18.6,11,18.6,24.57-8.32,24.57-18.6,24.57-18.61-11-18.61-24.57ZM1154.51,485.68c-14.64,11.35-32.99,17.09-54.5,17.09s-39.86-5.75-54.51-17.09c-3.26-2.53-3.85-7.21-1.34-10.47,2.53-3.25,7.21-3.85,10.47-1.33,11.97,9.28,27.24,13.98,45.38,13.98s33.4-4.7,45.38-13.98c1.36-1.06,2.96-1.56,4.56-1.56,2.23,0,4.43.99,5.9,2.89,2.52,3.26,1.93,7.94-1.34,10.47ZM1144.91,436.97c-10.27,0-18.6-11-18.6-24.57s8.32-24.57,18.6-24.57,18.61,11,18.61,24.57-8.33,24.57-18.61,24.57ZM1177.19,387.34c-.51.96-1.63,1.76-2.66,2.04-.99.28-2.56.2-3.43-.45-2.8-2.05-5.83-3.72-9-5.09-5-2.06-10.26-3.4-15.6-4.15-5.81-.72-11.69-.78-17.51-.05-.33.04-.66.09-.98.14-1.25.2-2.31.14-3.43-.46-1.04-.54-1.7-1.58-2.05-2.66-.34-1.07-.1-2.47.46-3.43.5-.86,1.63-1.88,2.65-2.04,4.04-.64,8.11-1,12.19-.98,6.93.03,13.95.99,20.6,2.93,6.07,1.76,12.06,4.35,17.17,8.11.98.72,1.67,1.49,2.04,2.66.37,1.14.1,2.39-.45,3.43ZM1161.53,383.58c.2.08.38.17.58.26.17.05.32.11.49.19-.35-.14-.71-.3-1.07-.45ZM1145.97,379.61c.18.02.36.05.54.08.22.02.42.04.64.07-.39-.05-.79-.1-1.18-.16ZM1128.27,379.72c.24-.03.49-.06.72-.08.16-.03.31-.05.47-.07-.39.05-.8.1-1.19.16ZM1071.59,379.57c.17.02.33.04.5.07.23.02.46.05.68.08-.39-.05-.79-.1-1.18-.16ZM1053.9,379.76c.23-.03.46-.06.68-.08.17-.02.34-.05.51-.07-.39.05-.8.1-1.19.16ZM1038.45,384.03c.17-.07.32-.13.49-.19.2-.09.38-.18.58-.26-.35.14-.7.3-1.07.45ZM1038.45,384.03c.17-.07.32-.13.49-.19.2-.09.38-.18.58-.26-.35.14-.7.3-1.07.45ZM1053.9,379.76c.23-.03.46-.06.68-.08.17-.02.34-.05.51-.07-.39.05-.8.1-1.19.16ZM1071.59,379.57c.17.02.33.04.5.07.23.02.46.05.68.08-.39-.05-.79-.1-1.18-.16ZM1128.27,379.72c.24-.03.49-.06.72-.08.16-.03.31-.05.47-.07-.39.05-.8.1-1.19.16ZM1145.97,379.61c.18.02.36.05.54.08.22.02.42.04.64.07-.39-.05-.79-.1-1.18-.16ZM1161.53,383.58c.2.08.38.17.58.26.17.05.32.11.49.19-.35-.14-.71-.3-1.07-.45ZM1161.53,383.58c.2.08.38.17.58.26.17.05.32.11.49.19-.35-.14-.71-.3-1.07-.45ZM1145.97,379.61c.18.02.36.05.54.08.22.02.42.04.64.07-.39-.05-.79-.1-1.18-.16ZM1128.27,379.72c.24-.03.49-.06.72-.08.16-.03.31-.05.47-.07-.39.05-.8.1-1.19.16ZM1071.59,379.57c.17.02.33.04.5.07.23.02.46.05.68.08-.39-.05-.79-.1-1.18-.16ZM1053.9,379.76c.23-.03.46-.06.68-.08.17-.02.34-.05.51-.07-.39.05-.8.1-1.19.16ZM1038.45,384.03c.17-.07.32-.13.49-.19.2-.09.38-.18.58-.26-.35.14-.7.3-1.07.45ZM1038.45,384.03c.17-.07.32-.13.49-.19.2-.09.38-.18.58-.26-.35.14-.7.3-1.07.45ZM1053.9,379.76c.23-.03.46-.06.68-.08.17-.02.34-.05.51-.07-.39.05-.8.1-1.19.16ZM1071.59,379.57c.17.02.33.04.5.07.23.02.46.05.68.08-.39-.05-.79-.1-1.18-.16ZM1128.27,379.72c.24-.03.49-.06.72-.08.16-.03.31-.05.47-.07-.39.05-.8.1-1.19.16ZM1145.97,379.61c.18.02.36.05.54.08.22.02.42.04.64.07-.39-.05-.79-.1-1.18-.16ZM1161.53,383.58c.2.08.38.17.58.26.17.05.32.11.49.19-.35-.14-.71-.3-1.07-.45ZM1161.53,383.58c.2.08.38.17.58.26.17.05.32.11.49.19-.35-.14-.71-.3-1.07-.45ZM1145.97,379.61c.18.02.36.05.54.08.22.02.42.04.64.07-.39-.05-.79-.1-1.18-.16ZM1128.27,379.72c.24-.03.49-.06.72-.08.16-.03.31-.05.47-.07-.39.05-.8.1-1.19.16ZM1071.59,379.57c.17.02.33.04.5.07.23.02.46.05.68.08-.39-.05-.79-.1-1.18-.16ZM1053.9,379.76c.23-.03.46-.06.68-.08.17-.02.34-.05.51-.07-.39.05-.8.1-1.19.16ZM1038.45,384.03c.17-.07.32-.13.49-.19.2-.09.38-.18.58-.26-.35.14-.7.3-1.07.45ZM1038.45,384.03c.17-.07.32-.13.49-.19.2-.09.38-.18.58-.26-.35.14-.7.3-1.07.45ZM1053.9,379.76c.23-.03.46-.06.68-.08.17-.02.34-.05.51-.07-.39.05-.8.1-1.19.16ZM1071.59,379.57c.17.02.33.04.5.07.23.02.46.05.68.08-.39-.05-.79-.1-1.18-.16ZM1128.27,379.72c.24-.03.49-.06.72-.08.16-.03.31-.05.47-.07-.39.05-.8.1-1.19.16ZM1145.97,379.61c.18.02.36.05.54.08.22.02.42.04.64.07-.39-.05-.79-.1-1.18-.16ZM1161.53,383.58c.2.08.38.17.58.26.17.05.32.11.49.19-.35-.14-.71-.3-1.07-.45ZM1161.53,383.58c.2.08.38.17.58.26.17.05.32.11.49.19-.35-.14-.71-.3-1.07-.45ZM1145.97,379.61c.18.02.36.05.54.08.22.02.42.04.64.07-.39-.05-.79-.1-1.18-.16ZM1128.27,379.72c.24-.03.49-.06.72-.08.16-.03.31-.05.47-.07-.39.05-.8.1-1.19.16ZM1071.59,379.57c.17.02.33.04.5.07.23.02.46.05.68.08-.39-.05-.79-.1-1.18-.16ZM1053.9,379.76c.23-.03.46-.06.68-.08.17-.02.34-.05.51-.07-.39.05-.8.1-1.19.16ZM1038.45,384.03c.17-.07.32-.13.49-.19.2-.09.38-.18.58-.26-.35.14-.7.3-1.07.45ZM1038.45,384.03c.17-.07.32-.13.49-.19.2-.09.38-.18.58-.26-.35.14-.7.3-1.07.45ZM1053.9,379.76c.23-.03.46-.06.68-.08.17-.02.34-.05.51-.07-.39.05-.8.1-1.19.16ZM1071.59,379.57c.17.02.33.04.5.07.23.02.46.05.68.08-.39-.05-.79-.1-1.18-.16ZM1071.59,379.57c.17.02.33.04.5.07.23.02.46.05.68.08-.39-.05-.79-.1-1.18-.16ZM1053.9,379.76c.23-.03.46-.06.68-.08.17-.02.34-.05.51-.07-.39.05-.8.1-1.19.16ZM1038.45,384.03c.17-.07.32-.13.49-.19.2-.09.38-.18.58-.26-.35.14-.7.3-1.07.45Z"/>
  <path class="cls-5" d="M737.37,479.17c-26.92-26.91-62.7-41.74-100.76-41.74s-73.84,14.83-100.76,41.74c-26.91,26.92-41.74,62.7-41.74,100.76s14.83,73.85,41.74,100.76,62.7,41.74,100.76,41.74,73.84-14.82,100.76-41.74c26.91-26.91,41.74-62.69,41.74-100.76s-14.83-73.84-41.74-100.76ZM565.23,520.98c-.1-2.4,2.12-4.45,4.45-4.45h38.46c2.5,0,4.34,2.04,4.44,4.45.11,2.4-2.12,4.45-4.44,4.45h-38.46c-2.5,0-4.34-2.04-4.45-4.45ZM588.91,582.46c-10.27,0-18.6-11-18.6-24.57s8.32-24.57,18.6-24.57,18.61,11,18.61,24.57-8.32,24.57-18.61,24.57ZM661.39,640.51h-49.57c-4.12,0-7.45-3.34-7.45-7.45s3.33-7.45,7.45-7.45h49.57c4.12,0,7.45,3.33,7.45,7.45s-3.33,7.45-7.45,7.45ZM681.52,582.46c-10.28,0-18.61-11-18.61-24.57s8.32-24.57,18.61-24.57,18.6,11,18.6,24.57-8.32,24.57-18.6,24.57ZM700.75,525.44h-38.46c-2.5,0-4.34-2.04-4.44-4.45-.11-2.4,2.12-4.45,4.44-4.45h38.46c2.5,0,4.34,2.04,4.45,4.45.1,2.4-2.12,4.45-4.45,4.45Z"/>
  <path class="cls-5" d="M1664.16,479.17c-26.92-26.91-62.7-41.74-100.76-41.74s-73.84,14.83-100.76,41.74c-26.91,26.92-41.74,62.7-41.74,100.76s14.83,73.85,41.74,100.76,62.7,41.74,100.76,41.74,73.84-14.82,100.76-41.74c26.91-26.91,41.74-62.69,41.74-100.76s-14.83-73.84-41.74-100.76ZM1492.02,520.98c-.1-2.4,2.12-4.45,4.45-4.45h38.46c2.5,0,4.34,2.04,4.44,4.45.11,2.4-2.12,4.45-4.44,4.45h-38.46c-2.5,0-4.34-2.04-4.45-4.45ZM1515.7,582.46c-10.27,0-18.6-11-18.6-24.57s8.32-24.57,18.6-24.57,18.61,11,18.61,24.57-8.32,24.57-18.61,24.57ZM1588.18,640.51h-49.57c-4.12,0-7.45-3.34-7.45-7.45s3.33-7.45,7.45-7.45h49.57c4.12,0,7.45,3.33,7.45,7.45s-3.33,7.45-7.45,7.45ZM1608.31,582.46c-10.28,0-18.61-11-18.61-24.57s8.32-24.57,18.61-24.57,18.6,11,18.6,24.57-8.32,24.57-18.6,24.57ZM1627.54,525.44h-38.46c-2.5,0-4.34-2.04-4.44-4.45-.11-2.4,2.12-4.45,4.44-4.45h38.46c2.5,0,4.34,2.04,4.45,4.45.1,2.4-2.12,4.45-4.45,4.45Z"/>
</svg>