<?xml version="1.0" encoding="UTF-8"?>
<svg id="Layer_1" data-name="Layer 1" xmlns="http://www.w3.org/2000/svg" version="1.1" viewBox="0 0 1366 768">
  <defs>
    <style>
      .cls-1 {
        fill: #ff6619;
      }

      .cls-1, .cls-2, .cls-3 {
        stroke-width: 0px;
      }

      .cls-2 {
        fill: #f33;
      }

      .cls-3 {
        fill: #95df3d;
      }
    </style>
  </defs>
  <path class="cls-2" d="M1342.76,707h-104.88c-2.41-87.45-25.28-173.1-66.63-249.53l90.93-52.44c50.48,92.28,78.17,196.03,80.59,301.98Z"/>
  <path class="cls-1" d="M1247.08,378.84l-90.93,52.52c-45.73-74.25-108.43-136.95-182.68-182.68l52.44-90.92c90.17,54.93,166.23,130.92,221.16,221.09Z"/>
  <path class="cls-3" d="M999.81,142.66l-52.52,90.92c-76.44-41.43-162.08-64.29-249.46-66.7V62c105.86,2.41,209.62,30.11,301.98,80.66Z"/>
  <path class="cls-3" d="M667.65,62v104.88c-87.45,2.41-173.1,25.28-249.53,66.63l-52.52-90.93c92.28-50.48,196.11-78.17,302.05-80.59Z"/>
  <path class="cls-1" d="M392.01,248.6c-74.32,45.73-137.03,108.43-182.76,182.75l-90.92-52.52c55.01-90.17,130.99-166.15,221.16-221.16l52.52,90.93Z"/>
  <path class="cls-2" d="M194.16,457.47c-41.35,76.44-64.29,162.08-66.63,249.53H22.65c2.34-105.94,30.11-209.77,80.59-302.05l90.92,52.52Z"/>
</svg>