<?xml version="1.0" encoding="UTF-8"?>
<svg id="Layer_1" data-name="Layer 1" xmlns="http://www.w3.org/2000/svg" viewBox="0 0 185.6 181.8">
  <defs>
    <style>
      .cls-1 {
        fill: #ed1c24;
      }

      .cls-2 {
        fill: #008c4f;
      }

      .cls-3 {
        fill: #fff;
      }
    </style>
  </defs>
  <path class="cls-1" d="M101.17,82.41c-.15.65.38,1.91-1.15.8-2.02-1.46-6.92-3.68-7.86-4.09-.94-.41-.58-.52-.58-.52-.83-1.8,1.03-8.34,5.02-12.6,4.01-4.27,6.92-4.88,17.75-12.27,10.83-7.4,8.67-13.35,8.29-17.02-.38-3.66-3.78-8.3-4.86-9.86-1.05-1.51-.56-1.73.05-1.44.38.17,1.05.48,1.05.48,11.44,6.07,13.59,15.34,12.15,21.51-1.71,7.46-11.12,12.37-18.58,17.2-9.16,5.92-11.13,17.16-11.27,17.81ZM105.07,18.16c-.35.38-2.35,2.61-4.04,3.53-1.69.92-3.66,2.23-4.2,2.53,0,0-2.43,1.81-3.28,3.95-.88,2.26,2.03,1.82,3.16,2.22,0,0,6.58.76,12.12,6.16,5.54,5.4,2.12,10.38-.48,11.8-2.2,1.21-8.56,5.13-9.67,6.59-1.46,1.92-2.55,5.67-2.26,5.92.04.03.07.24.37.07,1.99-1.11,8.07-5.78,11.04-7.04,2.85-1.21,14.33-7.39,11.25-16.71-3.07-9.32-11.56-17.86-12.71-19.01-.78-.79-.94-.41-1.29-.02ZM121.76,76.89c-.72.32-6.93,2.95-15.97,4.35,0,0-.56-.16-.6.77-.05.93.42,5.95,4.4,9.98,2.27,2.29,4.4,4.05,5.82,4.61q1.73.69,2.33-.48c.75-1.38,4.87-6.58,4.97-13.39.08-6.82-.25-6.15-.96-5.84ZM147.05,92.19c-1.92,2.12-6.99,6.9-15.43,9.01-8.11,2.03-18.54.84-32.14,1.45-10.83.48-20.54,6.35-22.06,7.26-1.52.91-1.72.64-1.44,7.43.28,6.8,5.94,11.36,7.66,12.38,1.71,1.01,1.11,1.2,2.12.16,1.3-1.3,4.13-4.03,10.05-6.43,11.54-4.67,17.88-4.26,27.06-5.04,5.77-.5,14.37-2.97,20.15-10.28,5.77-7.3,4.69-12.97,4.97-15.36.26-2.13-.95-.59-.95-.59ZM63.68,36.49c1.13-1.99,5.28-5.63,10.45-8.29,6.07-3.12,16.15-2.66,16.15-2.66.49-1.13,4.8-4.66,6.87-5.75,3.76-2,5.79-4.41,6.95-5.71,1.17-1.31,1.52-.91,2.77.04,1.2.9,13.23,9,16.66,11.16,3.43,2.16,12.4,9.96,11.26,19.54-1.14,9.59-6.8,14.63-16.71,20.22-9.73,5.5-11.75,12.69-11.75,12.69.32.54,11.32-1.63,22.77-7.89,8.91-4.87,18.31-13.68,21.65-23.66,8.34-25.01-18.35-30.62-18.35-30.62-5.3-13.79-23.17-9.66-23.17-9.66-20.74-8.41-33.45,6.63-33.45,6.63-20.06.98-26.62,15.87-28.55,23.66-.69,2.79-.57,4.68-.57,4.68,7.15-5.49,17.02-4.37,17.02-4.37ZM97.81,50.85c1.67-1.28,4.53-2.82,7.83-4.83,1.9-1.17,2.47-2.93,2.36-4.09-.23-2.47-2.56-3.95-3.19-4.33-.95-.59-1.54.36-1.54.36,0,0-4.74,5.78-12.07,8.11-7.33,2.32-11.5-3.43-11.5-3.43-.91,3.82-1.39,6.7,2.45,11.37,3.83,4.67,10.51,7.25,10.51,7.25.11-6.63,5.15-10.4,5.15-10.4ZM161.44,58.38c-3.24-4.77-7.03-7.35-7.59-7.68-.57-.34-.95-.51-1.28.15,0,0-2.49,5.11-5.61,8.68-3.12,3.57-4.94,5.98-10.16,9.56-5.42,3.7-9.73,5.68-9.73,5.68,0,0-.91.14-.78.97.14.81,1.26,7.84-.85,13.2-2.11,5.36-3.94,7.2-4.27,7.96-.33.75-.78.78.42.99,1.2.21,7.06,1.12,13-1.25,6.13-2.45,12.43-8.31,15.31-13.15,3.08-5.21,7.49-11.36,14.33-12.46,1.18-.19.7-2.33.54-3.61,0,0,.57-3.25-3.33-9.03ZM85.94,35.48c-8.28,5.14.53,9.81,6.32,6.37,4.42-2.62,7.27-4.99,8.08-5.5,1.29-.8.03-1.2.03-1.2-.93-.22-9.7-2.62-14.43.32ZM56.52,82.06c-3.96-.48-8.97-1.33-12.57-3.16,0,0-1.37-.82-.63.74.7,1.47,3.2,7.04,4.09,11.46,1.03,5.18,2.46,14.16,14.12,17.48,9.82,2.78,16.54-4.02,24.4-6.66,7.87-2.63,17.67-3.43,24.69-2.79,1.4.12.6-.87.11-1.3-.48-.43-8.19-8.67-10.69-10.46-2.49-1.81-9.32-7.32-20.97-6.7-11.66.63-15.26,2.27-22.56,1.4ZM37.07,71.42s7.68,5.53,16.18,6.79c8.16,1.22,12.41,1.14,19.5-.62,0,0,.97.21.55-1.49,0,0-1.04-6.21-.52-11.47.13-1.21-1.45-1.39-2.69-2.06,0,0-4.09-1.64-7.94-7.71-1.53-2.4-2.76-8.48-.9-12.98.19-.46.5-1.2.54-1.49.1-.54.42-.83-.71-.96-1-.11-2.86.09-4.87.54-1.84.41-9.23,1.75-14.45,12.52-5.22,10.77-4.36,18.18-4.69,18.93ZM78.06,77.13c1.3.11,8.02.29,9.15.61,1.12.31.56.25.6-.67.04-.93.77-7,3.09-9.38,1.07-1.09.88-1.34-.15-1.35-.57,0-1.27.14-1.39.15-.27,0-7.71.23-11.92-1.11,0,0-.95-.6-.98.61-.02.92.32,9.46.55,10.09.21.64-.23.93,1.07,1.05ZM89.2,29.5c-9.66-1.78-16.54,3.85-18.68,5.15-2.67,1.62-11.24,11.64-4.34,20.01,7.36,8.96,19.48,8.25,20.68,8.19,1.2-.07.72-.23.72-.23-.59-.61-15.16-8.11-12.17-19.22,2.92-10.84,11.8-11.68,13.76-12.8,1.6-.91.03-1.11.03-1.11Z"/>
  <g>
    <path class="cls-2" d="M145.72,152.09c7.8-8.49,11.27-15.05,14.95-24.26,3.8-9.51,4.43-16.34,4.43-16.34.14-.63.96-3.23-.42-2.97-2.28.42-10.46.24-11.29.19-.83-.05-.73.13-.79.78-.05.65.39-1.59-.74,6.67-1.11,8.25-4,15.35-7.87,22.97-4.33,8.5-13.47,17.98-19.21,22.04-5.36,3.81-12.7,8.64-24.72,10.95-12.02,2.31-21.86,1.17-21.86,1.17-.74-.19-.68-.62-.13-.69.21-.03.77-.15,1.35-.21,4.38-.49,10.01-1.79,15.88-4.71,2.79-1.4,9.74-5.5,15.68-11.34,6.87-6.76,10.56-12.53,13.43-19.13,4.21-9.69,4.15-14.95,4.15-14.95.3-1.3-.96-.78-.96-.78-1.9.57-6.58.82-6.58.82-.68.17-1.31,0-1.77.03-.47.04-.64.23-.72,1.3-.26,3.14-2.4,10.34-2.4,10.34-9.71,24.73-28.58,30.91-36.94,33.45-12.83,3.92-28.6.34-28.6.34-.73.05.02.28.02.28,0,0,1.6,1.26,10,4.62,8.8,3.51,16.93,4.2,16.93,4.2,8.68,1.65,20.99.44,26.86-.95,6.49-1.53,11.37-2.66,19.31-6.91,8.62-4.61,14.13-8.34,22.04-16.95Z"/>
    <path class="cls-2" d="M173.29,85.71c-2.59-5.47-7.09-8.82-8.27-10.04-1.17-1.23-2.4-.15-2.4-.15-6.04,2.53-10.64,10.88-11.13,12-.48,1.14-.41.95-.24,2.32,1.05,8.77-.74,11.99-1.33,13.04-.59,1.05-.99,1.51,1.39,1.86,3.15.48,8.32.57,14.8-.15,6.5-.71,13.23-3.75,13.96-4.06.72-.32.92-.06-.38-1.81-2.34-3.22-3.81-7.54-6.41-13.01Z"/>
    <path class="cls-2" d="M27.05,148.6c9.52,11.12,19.49,14.41,29.14,16.39,3.9.79,15.5,1.13,25.36-2.3,12.3-4.24,20.46-13.05,23.54-17.45,3.92-5.61,8.85-15.2,9.01-22.48,0,0-9.42,1.15-14.29,2.89-4.89,1.73-12.41,7.18-13.27,8.35-.83,1.14-1.13.92-2.42.38-1.79-.77-7.69-5.46-8.8-7.15-.36-.55-2.56,2.08-5.14,3.87-2.57,1.8-11.14,6.67-23.86,6.35,0,0-.43-2.93-1.34-6.1-.9-3.17-4.26-10.72-4.05-15.42,0,0-9.51.97-16.21-.42-6.38-1.32-9.96-2.16-13.68-4.45,0,0-.61-.06-.46,1.12.17,1.19,3.45,21.23,16.46,36.42Z"/>
    <path class="cls-2" d="M49.02,132.79c.04.74.15.91.96.78.82-.14,5.55.35,13.11-2.63,7.2-2.85,10.53-7.84,10.53-7.84-1.86-3.67-1.08-11.44-1.08-11.44-8.02,1.53-9.99.81-13.72-.09-6.79-1.66-10.91-8.07-10.91-8.07-3.82,4.27-4.04,14.14-2.14,18.43,1.78,4.05,3.22,10.13,3.25,10.86Z"/>
    <path class="cls-2" d="M127.91,138.59c-4.86,10.48-9.21,14.93-12.6,18.9-3.38,3.94-9.5,8.14-11.73,9.54-2.22,1.42-.78.88.04.64.82-.22,4.83-.99,14.89-7.15,6.92-4.22,15.04-11.15,21.36-22.13,6.39-11.1,7.86-21.4,7.99-24.35.1-2.96.16-5.45.16-5.45,0,0-.07-1.37-.83.05-.74,1.42-2.64,3.92-6.28,6.41-3.64,2.51-5.57,3.84-7.75,4.83-1.08.49-.55.21-.67,1.14-.13.93.37,6.89-4.59,17.55Z"/>
    <path class="cls-2" d="M4.97,100.75c1.53,1.1,5.1,6.4,15.71,9.74,11.05,3.45,20.32,1.29,20.32,1.29.59-4.45,1.99-5.81,2.66-8.7.67-2.89,1.3-9.21-.67-15.08-1.98-5.88-4.69-9.47-4.69-9.47-.72-1.24-2.16-.62-2.16-.62-9.15,2.61-16.96,8.08-21.97,14.16-3.79,4.63-9.19,8.69-9.19,8.69Z"/>
    <path class="cls-2" d="M41.95,40.69c-.97.7-12.9,9.9-18.07,18-5.25,8.21-9.63,18.02-11.93,27.87-.53,2.23-.6,1.96,1.74,0,3.88-3.24,8.23-7.98,19.26-11.62.97-.32.55-1.5.53-3.71,0,0,.34-14.2,7.7-24.44.37-.51.94-.91,1.02-1.52.2-1.49.51-4.26.51-4.26,0,0,.22-1.03-.76-.33Z"/>
  </g>
  <path class="cls-3" d="M180.79,93.32c-1.54-3.2-2.57-5.88-4.57-9.69-3.39-6.44-7.5-9.44-7.5-9.44-.48-.38-.96-.69-.89-1.25.04-.37.13-1.32.27-1.95,1.7-7.72-3.96-15.51-6.32-18.25-2.35-2.73-6.83-5.61-6.83-5.61-.85-.23-.56-.3-.34-1.17,2.41-9.89,1.66-15.28-1.97-21.16-6.16-9.97-18.17-12.83-18.17-12.83-3.38-6.17-8.89-7.98-8.89-7.98-9.42-3.82-16.66-1.68-16.66-1.68-5.54-2.09-10.66-3.19-19.5-1.43-8.83,1.77-14.83,8.25-14.83,8.25-9.41,1.24-11.38,1.74-17.44,5.91-9.32,6.38-12.64,18.16-12.64,18.16-.88,2.44-.2,1.39-1.18,2.09-2.13,1.53-9.5,6.21-13.69,10.58-6.34,6.62-9.58,10.27-15.24,21.16-5.67,10.89-7.54,25.8-7.54,25.8-.18,1.85-.36,1.76-1.43,2.65-1.05.89-4.33,3.36-4.86,3.67-.54.31-.85.58-.2,1.4,1.68,2.11,3.7,5.38,4.66,6.15.95.78.62,1.32.62,1.32.9,4.73.5,9.71,6.34,23.74,6.8,16.36,15.26,23.89,19.84,28.26,5,4.74,17.65,15.12,38.04,19.79,18.43,4.25,34.18.38,34.18.38,14.06-2.35,27.75-9.99,36.67-17.63,13.46-11.54,18.94-22.67,21.22-27.34,5.27-10.84,7.56-26.12,7.56-26.12.01-1.48.59-.93,5.58-2.48,4.98-1.56,9.68-4.66,9.68-4.66.35-.48,1.57-.49.27-1.95-1.56-1.76-3.17-4.46-4.22-6.67M153.84,50.69c.57.33,4.36,2.91,7.59,7.68,3.9,5.78,3.33,9.03,3.33,9.03.16,1.28.64,3.42-.54,3.61-6.84,1.1-11.26,7.26-14.33,12.46-2.87,4.84-9.18,10.7-15.31,13.15-5.94,2.37-11.8,1.46-13,1.25-1.21-.21-.75-.24-.42-.99.33-.76,2.16-2.6,4.27-7.96,2.1-5.36.99-12.39.85-13.2-.13-.83.78-.97.78-.97,0,0,4.31-1.97,9.73-5.68,5.22-3.57,7.03-5.99,10.16-9.56,3.12-3.57,5.61-8.68,5.61-8.68.33-.66.71-.5,1.28-.15M133.18,119.89c2.18-.99,4.11-2.33,7.75-4.83,3.64-2.49,5.53-4.99,6.28-6.41.76-1.42.83-.05.83-.05,0,0-.06,2.49-.16,5.45-.13,2.95-1.6,13.25-7.99,24.35-6.32,10.98-14.44,17.91-21.36,22.13-10.07,6.15-14.07,6.92-14.89,7.15-.81.24-2.26.77-.04-.64,2.23-1.4,8.35-5.6,11.73-9.54,3.39-3.96,7.74-8.42,12.6-18.9,4.96-10.66,4.46-16.62,4.59-17.55.12-.93-.41-.65.67-1.14M148.01,92.78c-.28,2.39.8,8.06-4.97,15.36-5.78,7.31-14.38,9.78-20.15,10.28-9.18.79-15.52.37-27.06,5.04-5.92,2.4-8.75,5.13-10.05,6.43-1.01,1.03-.41.85-2.12-.16-1.72-1.01-7.38-5.58-7.66-12.38-.28-6.8-.08-6.53,1.44-7.43,1.52-.91,11.23-6.78,22.06-7.26,13.6-.61,24.02.57,32.14-1.45,8.45-2.11,13.51-6.9,15.43-9.01,0,0,1.22-1.53.95.59M73.63,123.1s-3.34,4.99-10.53,7.84c-7.57,2.97-12.29,2.49-13.11,2.63-.81.14-.92-.04-.96-.78-.03-.73-1.47-6.82-3.25-10.86-1.9-4.29-1.68-14.17,2.14-18.43,0,0,4.12,6.41,10.91,8.07,3.73.9,5.71,1.62,13.72.09,0,0-.78,7.77,1.08,11.44M61.52,108.57c-11.66-3.32-13.09-12.3-14.12-17.48-.89-4.42-3.39-9.98-4.09-11.46-.74-1.57.63-.74.63-.74,3.6,1.83,8.61,2.68,12.57,3.16,7.3.87,10.9-.77,22.56-1.4,11.65-.62,18.48,4.89,20.97,6.7,2.5,1.79,10.2,10.04,10.69,10.46.49.44,1.29,1.43-.11,1.3-7.03-.63-16.83.16-24.69,2.79-7.87,2.63-14.58,9.43-24.4,6.66M101.17,82.41c-.15.65.38,1.91-1.15.8-2.02-1.46-6.92-3.68-7.86-4.09-.94-.41-.58-.52-.58-.52-.83-1.8,1.03-8.34,5.02-12.6,4.01-4.27,6.92-4.88,17.75-12.27,10.83-7.4,8.67-13.35,8.29-17.02-.38-3.66-3.78-8.3-4.86-9.86-1.05-1.51-.56-1.73.05-1.44.38.17,1.05.48,1.05.48,11.44,6.07,13.59,15.34,12.15,21.51-1.71,7.46-11.12,12.37-18.58,17.2-9.16,5.92-11.13,17.16-11.27,17.81M105.79,81.25c9.04-1.4,15.24-4.03,15.97-4.35.71-.31,1.04-.98.96,5.84-.1,6.81-4.22,12.01-4.97,13.39q-.6,1.17-2.33.48c-1.42-.57-3.55-2.32-5.82-4.61-3.99-4.03-4.45-9.05-4.4-9.98.04-.93.6-.77.6-.77M119.06,37.19c3.08,9.31-8.4,15.5-11.25,16.71-2.97,1.26-9.05,5.92-11.04,7.04-.3.17-.33-.04-.37-.07-.29-.26.81-4.01,2.26-5.92,1.11-1.46,7.48-5.39,9.67-6.59,2.59-1.43,6.01-6.4.48-11.8-5.55-5.41-12.12-6.16-12.12-6.16-1.12-.4-4.04.04-3.16-2.22.85-2.14,3.28-3.95,3.28-3.95.54-.3,2.51-1.61,4.2-2.53,1.69-.92,3.69-3.15,4.04-3.53.35-.39.5-.76,1.29.02,1.14,1.15,9.63,9.69,12.71,19.01M92.66,61.25s-6.67-2.58-10.51-7.25c-3.84-4.67-3.36-7.55-2.45-11.37,0,0,4.17,5.75,11.5,3.43,7.33-2.33,12.07-8.11,12.07-8.11,0,0,.59-.95,1.54-.36.62.38,2.96,1.86,3.19,4.33.11,1.15-.46,2.92-2.36,4.09-3.3,2.02-6.16,3.55-7.83,4.83,0,0-5.04,3.77-5.15,10.4M100.37,35.16s1.26.4-.03,1.2c-.81.51-3.66,2.87-8.08,5.5-5.8,3.44-14.6-1.24-6.32-6.37,4.74-2.94,13.5-.54,14.43-.32M89.17,30.61c-1.96,1.11-10.84,1.96-13.76,12.8-2.99,11.11,11.58,18.6,12.17,19.22,0,0,.48.16-.72.23-1.2.06-13.32.77-20.68-8.19-6.9-8.37,1.67-18.39,4.34-20.01,2.14-1.29,9.02-6.93,18.68-5.15,0,0,1.57.19-.03,1.11M76.44,65.99c.03-1.21.98-.61.98-.61,4.21,1.34,11.65,1.12,11.92,1.11.13,0,.83-.15,1.39-.15,1.03.01,1.22.26.15,1.35-2.32,2.38-3.04,8.45-3.09,9.38-.04.92.52.98-.6.67-1.13-.31-7.85-.5-9.15-.61-1.29-.13-.85-.41-1.07-1.05-.22-.63-.57-9.17-.55-10.09M47.23,36.18c1.93-7.79,8.48-22.68,28.55-23.66,0,0,12.72-15.04,33.45-6.63,0,0,17.86-4.13,23.17,9.66,0,0,26.69,5.61,18.35,30.62-3.33,9.98-12.74,18.79-21.65,23.66-11.45,6.26-22.45,8.43-22.77,7.89,0,0,2.02-7.19,11.75-12.69,9.91-5.59,15.57-10.63,16.71-20.22,1.14-9.58-7.83-17.38-11.26-19.54-3.43-2.16-15.47-10.26-16.66-11.16-1.24-.95-1.6-1.35-2.77-.04-1.16,1.31-3.2,3.71-6.95,5.71-2.07,1.1-6.38,4.62-6.87,5.75,0,0-10.08-.46-16.15,2.66-5.17,2.66-9.32,6.3-10.45,8.29,0,0-9.86-1.13-17.02,4.37,0,0-.12-1.88.57-4.68M56.21,39.96c2.02-.44,3.87-.65,4.87-.54,1.13.13.81.42.71.96-.05.29-.35,1.03-.54,1.49-1.86,4.51-.64,10.58.9,12.98,3.85,6.06,7.94,7.71,7.94,7.71,1.23.67,2.81.86,2.69,2.06-.52,5.26.52,11.47.52,11.47.43,1.71-.55,1.49-.55,1.49-7.08,1.77-11.34,1.84-19.5.62-8.51-1.27-16.18-6.79-16.18-6.79.33-.76-.53-8.16,4.69-18.93,5.22-10.77,12.6-12.11,14.45-12.52M11.94,86.57c2.3-9.85,6.69-19.67,11.94-27.87,5.17-8.1,17.1-17.3,18.07-18,.98-.69.76.33.76.33,0,0-.31,2.77-.51,4.26-.08.61-.65,1.02-1.02,1.52-7.36,10.24-7.7,24.44-7.7,24.44.02,2.2.44,3.38-.53,3.71-11.03,3.63-15.38,8.37-19.26,11.62-2.34,1.96-2.27,2.23-1.74,0M4.97,100.75s5.4-4.07,9.19-8.69c5.01-6.08,12.82-11.55,21.97-14.16,0,0,1.45-.62,2.16.62,0,0,2.71,3.59,4.69,9.47,1.97,5.87,1.34,12.19.67,15.08-.67,2.89-2.07,4.26-2.66,8.7,0,0-9.27,2.15-20.32-1.29-10.61-3.33-14.17-8.63-15.71-9.74M27.05,148.6c-13.02-15.19-16.3-35.23-16.46-36.42-.15-1.18.46-1.12.46-1.12,3.71,2.29,7.3,3.14,13.68,4.45,6.7,1.39,16.21.42,16.21.42-.21,4.7,3.14,12.25,4.05,15.42.91,3.17,1.34,6.1,1.34,6.1,12.72.33,21.29-4.55,23.86-6.35,2.58-1.79,4.78-4.42,5.14-3.87,1.11,1.69,7.01,6.38,8.8,7.15,1.29.53,1.58.75,2.42-.38.85-1.17,8.38-6.62,13.27-8.35,4.87-1.74,14.29-2.89,14.29-2.89-.16,7.28-5.09,16.88-9.01,22.48-3.08,4.4-11.24,13.21-23.54,17.45-9.86,3.42-21.46,3.09-25.36,2.3-9.65-1.98-19.62-5.27-29.14-16.39M165.1,111.49s-.63,6.83-4.43,16.34c-3.68,9.21-7.15,15.76-14.95,24.26-7.92,8.61-13.42,12.33-22.04,16.95-7.94,4.25-12.82,5.37-19.31,6.91-5.87,1.4-18.18,2.6-26.86.95,0,0-8.13-.7-16.93-4.2-8.41-3.36-10-4.62-10-4.62,0,0-.75-.23-.02-.28,0,0,15.78,3.58,28.6-.34,8.36-2.54,27.23-8.72,36.94-33.45,0,0,2.14-7.21,2.4-10.34.08-1.07.25-1.26.72-1.3.46-.03,1.1.14,1.77-.03,0,0,4.69-.25,6.58-.82,0,0,1.26-.52.96.78,0,0,.05,5.26-4.15,14.95-2.88,6.6-6.56,12.37-13.43,19.13-5.94,5.84-12.88,9.94-15.68,11.34-5.86,2.92-11.5,4.22-15.88,4.71-.58.06-1.14.17-1.35.21-.55.07-.61.5.13.69,0,0,9.84,1.14,21.86-1.17,12.02-2.31,19.36-7.14,24.72-10.95,5.74-4.06,14.88-13.54,19.21-22.04,3.88-7.62,6.76-14.72,7.87-22.97,1.13-8.26.69-6.03.74-6.67.06-.65-.04-.82.79-.78.84.05,9.01.23,11.29-.19,1.38-.26.56,2.33.42,2.97M180.08,100.53c-.73.31-7.46,3.35-13.96,4.06-6.49.72-11.65.63-14.8.15-2.38-.35-1.98-.81-1.39-1.86.59-1.05,2.38-4.27,1.33-13.04-.17-1.37-.24-1.18.24-2.32.49-1.13,5.09-9.47,11.13-12,0,0,1.23-1.08,2.4.15,1.17,1.22,5.68,4.57,8.27,10.04,2.6,5.47,4.07,9.78,6.41,13.01,1.3,1.76,1.09,1.49.38,1.81"/>
</svg>